<mxfile host="app.diagrams.net" modified="2024-06-20T21:19:56.143Z" agent="Mozilla/5.0 (Windows NT 10.0; Win64; x64) AppleWebKit/537.36 (KHTML, like Gecko) Chrome/126.0.0.0 Safari/537.36" etag="3EtLqWJE0N3jn9nCYxca" version="24.5.5" type="device">
  <diagram name="Página-1" id="BwJIJXq5n-dC0yV61qYf">
    <mxGraphModel dx="2620" dy="965" grid="1" gridSize="10" guides="1" tooltips="1" connect="1" arrows="1" fold="1" page="1" pageScale="1" pageWidth="827" pageHeight="1169" math="0" shadow="0">
      <root>
        <mxCell id="0" />
        <mxCell id="1" parent="0" />
        <mxCell id="laINSOJrXMKJfUPYL4_i-29" value=" " style="align=left;overflow=fill;html=1;dropTarget=0;whiteSpace=wrap;shadow=1;" parent="1" vertex="1">
          <mxGeometry x="190" y="40" width="1350" height="901" as="geometry" />
        </mxCell>
        <mxCell id="laINSOJrXMKJfUPYL4_i-30" value="" style="shape=component;jettyWidth=8;jettyHeight=4;shadow=1;" parent="laINSOJrXMKJfUPYL4_i-29" vertex="1">
          <mxGeometry x="1" width="20" height="20" relative="1" as="geometry">
            <mxPoint x="-24" y="4" as="offset" />
          </mxGeometry>
        </mxCell>
        <mxCell id="laINSOJrXMKJfUPYL4_i-9" value="&lt;font&gt;&amp;nbsp; &amp;nbsp;&lt;font style=&quot;font-size: 18px;&quot;&gt;Gerenciador de Pagamentos&amp;nbsp;&lt;/font&gt;&lt;/font&gt;&lt;div&gt;&lt;font style=&quot;font-size: 18px;&quot;&gt;&lt;br&gt;&lt;font&gt;&amp;nbsp;- Serviço para Processamento de Pagamentos&lt;/font&gt;&lt;/font&gt;&lt;/div&gt;&lt;div&gt;&lt;font size=&quot;3&quot;&gt;&amp;nbsp;&lt;/font&gt;&lt;div&gt;&lt;font size=&quot;3&quot;&gt;- Serviço para Cálculo de Valores&lt;/font&gt;&lt;/div&gt;&lt;div&gt;&lt;font size=&quot;3&quot;&gt;&lt;font&gt;&amp;nbsp;&lt;/font&gt;&lt;br&gt;&lt;/font&gt;&lt;font&gt;&lt;font size=&quot;3&quot;&gt;&amp;nbsp; &amp;nbsp; &amp;nbsp;- Serviço para Emissão de Recibos&amp;nbsp; &lt;/font&gt;&amp;nbsp;&lt;/font&gt;&lt;/div&gt;&lt;/div&gt;&lt;div&gt;&lt;font&gt;&lt;br&gt;&lt;/font&gt;&lt;/div&gt;&lt;div&gt;&lt;font&gt;&lt;br&gt;&lt;/font&gt;&lt;/div&gt;&lt;div&gt;&lt;font&gt;&lt;br&gt;&lt;/font&gt;&lt;/div&gt;&lt;div&gt;&lt;font&gt;&lt;br&gt;&lt;/font&gt;&lt;/div&gt;&lt;div&gt;&lt;font&gt;&lt;br&gt;&lt;/font&gt;&lt;/div&gt;&lt;div&gt;&lt;font&gt;&lt;br&gt;&lt;/font&gt;&lt;/div&gt;&lt;div&gt;&lt;font&gt;&lt;br&gt;&lt;/font&gt;&lt;/div&gt;&lt;div&gt;&lt;font&gt;&lt;br&gt;&lt;/font&gt;&lt;/div&gt;&lt;div&gt;&lt;font size=&quot;3&quot;&gt;&lt;font&gt;- Serviço para Verificação de Pagamentos&lt;/font&gt;&lt;br&gt;&lt;/font&gt;&lt;/div&gt;&lt;div&gt;&lt;font size=&quot;3&quot;&gt;&lt;br&gt;&lt;/font&gt;&lt;/div&gt;&lt;div&gt;&lt;font size=&quot;3&quot;&gt;- Serviço para Atualização de Transações&lt;br&gt;&lt;/font&gt;&lt;/div&gt;&lt;div&gt;&lt;font size=&quot;3&quot;&gt;&lt;br&gt;&lt;/font&gt;&lt;/div&gt;&lt;div&gt;&lt;font&gt;&lt;font size=&quot;3&quot;&gt;- Serviço para Reembolsos&lt;/font&gt;&lt;br&gt;&lt;/font&gt;&lt;/div&gt;&lt;div&gt;&lt;font&gt;&lt;br&gt;&lt;/font&gt;&lt;/div&gt;&lt;div&gt;&lt;br&gt;&lt;/div&gt;" style="html=1;dropTarget=0;whiteSpace=wrap;shadow=1;" parent="1" vertex="1">
          <mxGeometry x="570" y="401" width="380" height="450" as="geometry" />
        </mxCell>
        <mxCell id="laINSOJrXMKJfUPYL4_i-10" value="" style="shape=module;jettyWidth=8;jettyHeight=4;shadow=1;" parent="laINSOJrXMKJfUPYL4_i-9" vertex="1">
          <mxGeometry x="1" width="20" height="20" relative="1" as="geometry">
            <mxPoint x="-27" y="7" as="offset" />
          </mxGeometry>
        </mxCell>
        <mxCell id="laINSOJrXMKJfUPYL4_i-11" value="&lt;font style=&quot;font-size: 18px;&quot;&gt;Módulo Produtos:&lt;/font&gt;&lt;div&gt;&lt;br&gt;&lt;/div&gt;&lt;div&gt;&lt;br&gt;&lt;/div&gt;&lt;div&gt;&lt;font style=&quot;font-size: 18px;&quot;&gt;&lt;font&gt;- Serviço para Cadastro de Produtos&lt;/font&gt;&lt;br&gt;&lt;/font&gt;&lt;/div&gt;&lt;div&gt;&lt;font style=&quot;font-size: 18px;&quot;&gt;&lt;br&gt;&lt;/font&gt;&lt;/div&gt;&lt;div&gt;&lt;font size=&quot;3&quot;&gt;- Serviço para Edição de Produtos&lt;br&gt;&lt;/font&gt;&lt;/div&gt;&lt;div&gt;&lt;font size=&quot;3&quot;&gt;&lt;br&gt;&lt;/font&gt;&lt;/div&gt;&lt;div&gt;&lt;font size=&quot;3&quot;&gt;- Serviço para Listagem e consulta de Produtos&lt;/font&gt;&lt;/div&gt;&lt;div&gt;&lt;br&gt;&lt;/div&gt;&lt;div&gt;&lt;font&gt;&amp;nbsp;&amp;nbsp;&lt;/font&gt;&lt;/div&gt;" style="html=1;dropTarget=0;whiteSpace=wrap;shadow=1;" parent="1" vertex="1">
          <mxGeometry x="1020" y="401" width="420" height="409" as="geometry" />
        </mxCell>
        <mxCell id="laINSOJrXMKJfUPYL4_i-12" value="" style="shape=module;jettyWidth=8;jettyHeight=4;shadow=1;" parent="laINSOJrXMKJfUPYL4_i-11" vertex="1">
          <mxGeometry x="1" width="20" height="20" relative="1" as="geometry">
            <mxPoint x="-27" y="7" as="offset" />
          </mxGeometry>
        </mxCell>
        <mxCell id="laINSOJrXMKJfUPYL4_i-42" value="" style="ellipse;whiteSpace=wrap;html=1;align=center;aspect=fixed;fillColor=none;strokeColor=none;resizable=0;perimeter=centerPerimeter;rotatable=0;allowArrows=0;points=[];outlineConnect=1;shadow=1;" parent="1" vertex="1">
          <mxGeometry x="1050" y="360" width="10" height="10" as="geometry" />
        </mxCell>
        <mxCell id="laINSOJrXMKJfUPYL4_i-44" value="" style="ellipse;whiteSpace=wrap;html=1;align=center;aspect=fixed;fillColor=none;strokeColor=none;resizable=0;perimeter=centerPerimeter;rotatable=0;allowArrows=0;points=[];outlineConnect=1;shadow=1;" parent="1" vertex="1">
          <mxGeometry x="1120" y="430" width="10" height="10" as="geometry" />
        </mxCell>
        <mxCell id="laINSOJrXMKJfUPYL4_i-48" value="" style="ellipse;whiteSpace=wrap;html=1;align=center;aspect=fixed;fillColor=none;strokeColor=none;resizable=0;perimeter=centerPerimeter;rotatable=0;allowArrows=0;points=[];outlineConnect=1;shadow=1;" parent="1" vertex="1">
          <mxGeometry x="1530" y="201" width="10" height="10" as="geometry" />
        </mxCell>
        <mxCell id="laINSOJrXMKJfUPYL4_i-69" value="" style="ellipse;whiteSpace=wrap;html=1;align=center;aspect=fixed;fillColor=none;strokeColor=none;resizable=0;perimeter=centerPerimeter;rotatable=0;allowArrows=0;points=[];outlineConnect=1;shadow=1;" parent="1" vertex="1">
          <mxGeometry x="1060" y="320" width="10" height="10" as="geometry" />
        </mxCell>
        <mxCell id="laINSOJrXMKJfUPYL4_i-71" value="" style="ellipse;whiteSpace=wrap;html=1;align=center;aspect=fixed;fillColor=none;strokeColor=none;resizable=0;perimeter=centerPerimeter;rotatable=0;allowArrows=0;points=[];outlineConnect=1;" parent="1" vertex="1">
          <mxGeometry x="1530" y="306" width="10" height="10" as="geometry" />
        </mxCell>
        <mxCell id="laINSOJrXMKJfUPYL4_i-77" value="" style="ellipse;whiteSpace=wrap;html=1;align=center;aspect=fixed;fillColor=none;strokeColor=none;resizable=0;perimeter=centerPerimeter;rotatable=0;allowArrows=0;points=[];outlineConnect=1;" parent="1" vertex="1">
          <mxGeometry x="1530" y="236" width="10" height="10" as="geometry" />
        </mxCell>
        <mxCell id="laINSOJrXMKJfUPYL4_i-81" value="&lt;p style=&quot;margin:0px;margin-top:6px;text-align:center;&quot;&gt;&lt;b&gt;Component&lt;/b&gt;&lt;/p&gt;&lt;hr size=&quot;1&quot; style=&quot;border-style:solid;&quot;&gt;&lt;p style=&quot;margin:0px;margin-left:8px;&quot;&gt;&lt;font&gt;Banco de Dados dos produtos&lt;/font&gt;&lt;br&gt;&lt;/p&gt;" style="align=left;overflow=fill;html=1;dropTarget=0;whiteSpace=wrap;" parent="1" vertex="1">
          <mxGeometry x="1050" y="731" width="180" height="60" as="geometry" />
        </mxCell>
        <mxCell id="laINSOJrXMKJfUPYL4_i-82" value="" style="shape=component;jettyWidth=8;jettyHeight=4;" parent="laINSOJrXMKJfUPYL4_i-81" vertex="1">
          <mxGeometry x="1" width="20" height="20" relative="1" as="geometry">
            <mxPoint x="-24" y="4" as="offset" />
          </mxGeometry>
        </mxCell>
        <mxCell id="laINSOJrXMKJfUPYL4_i-83" value="&lt;p style=&quot;margin:0px;margin-top:6px;text-align:center;&quot;&gt;&lt;b&gt;Component&lt;/b&gt;&lt;/p&gt;&lt;hr size=&quot;1&quot; style=&quot;border-style:solid;&quot;&gt;&lt;p style=&quot;margin:0px;margin-left:8px;&quot;&gt;&lt;font&gt;&amp;nbsp; &amp;nbsp; &amp;nbsp; &amp;nbsp;Serviço&amp;nbsp;de Categorias&lt;/font&gt;&lt;br&gt;&lt;/p&gt;" style="align=left;overflow=fill;html=1;dropTarget=0;whiteSpace=wrap;" parent="1" vertex="1">
          <mxGeometry x="1250" y="731" width="180" height="60" as="geometry" />
        </mxCell>
        <mxCell id="laINSOJrXMKJfUPYL4_i-84" value="" style="shape=component;jettyWidth=8;jettyHeight=4;" parent="laINSOJrXMKJfUPYL4_i-83" vertex="1">
          <mxGeometry x="1" width="20" height="20" relative="1" as="geometry">
            <mxPoint x="-24" y="4" as="offset" />
          </mxGeometry>
        </mxCell>
        <mxCell id="laINSOJrXMKJfUPYL4_i-86" value="&lt;p style=&quot;margin:0px;margin-top:6px;text-align:center;&quot;&gt;&lt;b&gt;Component&lt;/b&gt;&lt;/p&gt;&lt;hr size=&quot;1&quot; style=&quot;border-style:solid;&quot;&gt;&lt;p style=&quot;margin:0px;margin-left:8px;&quot;&gt;&lt;font&gt;Banco de Dados de&amp;nbsp;Transações&lt;/font&gt;&lt;br&gt;&lt;/p&gt;" style="align=left;overflow=fill;html=1;dropTarget=0;whiteSpace=wrap;" parent="1" vertex="1">
          <mxGeometry x="590" y="611" width="180" height="50" as="geometry" />
        </mxCell>
        <mxCell id="laINSOJrXMKJfUPYL4_i-87" value="" style="shape=component;jettyWidth=8;jettyHeight=4;" parent="laINSOJrXMKJfUPYL4_i-86" vertex="1">
          <mxGeometry x="1" width="20" height="20" relative="1" as="geometry">
            <mxPoint x="-24" y="4" as="offset" />
          </mxGeometry>
        </mxCell>
        <mxCell id="laINSOJrXMKJfUPYL4_i-88" value="&lt;p style=&quot;margin:0px;margin-top:6px;text-align:center;&quot;&gt;&lt;b&gt;Component&lt;/b&gt;&lt;/p&gt;&lt;hr size=&quot;1&quot; style=&quot;border-style:solid;&quot;&gt;&lt;p style=&quot;margin:0px;margin-left:8px;&quot;&gt;&lt;font&gt;&amp;nbsp;Serviço&amp;nbsp;de Descontos&lt;/font&gt;&lt;br&gt;&lt;/p&gt;" style="align=left;overflow=fill;html=1;dropTarget=0;whiteSpace=wrap;" parent="1" vertex="1">
          <mxGeometry x="780" y="611" width="150" height="50" as="geometry" />
        </mxCell>
        <mxCell id="laINSOJrXMKJfUPYL4_i-89" value="" style="shape=component;jettyWidth=8;jettyHeight=4;" parent="laINSOJrXMKJfUPYL4_i-88" vertex="1">
          <mxGeometry x="1" width="20" height="20" relative="1" as="geometry">
            <mxPoint x="-24" y="4" as="offset" />
          </mxGeometry>
        </mxCell>
        <mxCell id="laINSOJrXMKJfUPYL4_i-91" value="" style="endArrow=none;dashed=1;html=1;rounded=0;exitX=0.426;exitY=-0.006;exitDx=0;exitDy=0;exitPerimeter=0;endFill=0;startArrow=open;startFill=0;entryX=0.402;entryY=1.007;entryDx=0;entryDy=0;entryPerimeter=0;" parent="1" edge="1" target="AVK9l2AzXD93aiFDaeZY-46">
          <mxGeometry width="50" height="50" relative="1" as="geometry">
            <mxPoint x="691.8800000000001" y="398.30000000000007" as="sourcePoint" />
            <mxPoint x="790" y="320" as="targetPoint" />
            <Array as="points" />
          </mxGeometry>
        </mxCell>
        <mxCell id="laINSOJrXMKJfUPYL4_i-92" value="&lt;font style=&quot;font-size: 18px;&quot;&gt;&lt;font&gt;&amp;nbsp; Módulo Gerenciador de Relatórios&amp;nbsp;&lt;/font&gt;&lt;br&gt;&lt;br&gt;&lt;font&gt;&amp;nbsp;- Serviço para Geração de Relatórios&lt;/font&gt;&lt;/font&gt;&lt;div&gt;&lt;span style=&quot;font-size: 18px;&quot;&gt;&lt;br&gt;&lt;/span&gt;&lt;div&gt;&lt;font&gt;&lt;font size=&quot;3&quot;&gt;- Serviço para BI e Análise de Dados&amp;nbsp;&lt;/font&gt;&lt;/font&gt;&lt;/div&gt;&lt;div&gt;&lt;font&gt;&lt;br&gt;&lt;/font&gt;&lt;/div&gt;&lt;div&gt;&lt;font&gt;&lt;font size=&quot;3&quot;&gt;&lt;/font&gt;&lt;span style=&quot;font-size: medium; background-color: initial;&quot;&gt;- Serviço para Exportação de Relatórios&lt;/span&gt;&amp;nbsp;&amp;nbsp;&lt;/font&gt;&lt;/div&gt;&lt;/div&gt;" style="html=1;dropTarget=0;whiteSpace=wrap;" parent="1" vertex="1">
          <mxGeometry x="240" y="401" width="270" height="270" as="geometry" />
        </mxCell>
        <mxCell id="laINSOJrXMKJfUPYL4_i-93" value="" style="shape=module;jettyWidth=8;jettyHeight=4;" parent="laINSOJrXMKJfUPYL4_i-92" vertex="1">
          <mxGeometry x="1" width="20" height="20" relative="1" as="geometry">
            <mxPoint x="-27" y="7" as="offset" />
          </mxGeometry>
        </mxCell>
        <mxCell id="AVK9l2AzXD93aiFDaeZY-1" value="&lt;p style=&quot;margin:0px;margin-top:6px;text-align:center;&quot;&gt;&lt;font&gt;Integração com Terceiros (Pagamentos)&lt;/font&gt;&lt;br&gt;&lt;/p&gt;&lt;hr size=&quot;1&quot; style=&quot;border-style:solid;&quot;&gt;&lt;p style=&quot;margin:0px;margin-left:8px;&quot;&gt;&lt;br&gt;&lt;/p&gt;" style="align=left;overflow=fill;html=1;dropTarget=0;whiteSpace=wrap;shadow=1;" vertex="1" parent="1">
          <mxGeometry x="-629" y="158.75" width="480" height="190" as="geometry" />
        </mxCell>
        <mxCell id="AVK9l2AzXD93aiFDaeZY-2" value="" style="shape=component;jettyWidth=8;jettyHeight=4;shadow=1;" vertex="1" parent="AVK9l2AzXD93aiFDaeZY-1">
          <mxGeometry x="1" width="20" height="20" relative="1" as="geometry">
            <mxPoint x="-24" y="4" as="offset" />
          </mxGeometry>
        </mxCell>
        <mxCell id="AVK9l2AzXD93aiFDaeZY-3" value="&lt;font style=&quot;font-size: 18px;&quot;&gt;- API Gateway de PagamentoS&lt;/font&gt;" style="html=1;dropTarget=0;whiteSpace=wrap;shadow=1;" vertex="1" parent="1">
          <mxGeometry x="-600" y="208.75" width="180" height="90" as="geometry" />
        </mxCell>
        <mxCell id="AVK9l2AzXD93aiFDaeZY-4" value="" style="shape=module;jettyWidth=8;jettyHeight=4;shadow=1;" vertex="1" parent="AVK9l2AzXD93aiFDaeZY-3">
          <mxGeometry x="1" width="20" height="20" relative="1" as="geometry">
            <mxPoint x="-27" y="7" as="offset" />
          </mxGeometry>
        </mxCell>
        <mxCell id="AVK9l2AzXD93aiFDaeZY-6" value="" style="rounded=0;whiteSpace=wrap;html=1;shadow=1;" vertex="1" parent="1">
          <mxGeometry x="-160" y="253.75" width="20" height="20" as="geometry" />
        </mxCell>
        <mxCell id="AVK9l2AzXD93aiFDaeZY-28" value="" style="rounded=0;whiteSpace=wrap;html=1;shadow=1;" vertex="1" parent="1">
          <mxGeometry x="-433" y="253.75" width="20" height="20" as="geometry" />
        </mxCell>
        <mxCell id="AVK9l2AzXD93aiFDaeZY-29" value="" style="endArrow=none;html=1;rounded=0;entryX=0;entryY=0.5;entryDx=0;entryDy=0;exitX=1;exitY=0.5;exitDx=0;exitDy=0;shadow=1;" edge="1" parent="1">
          <mxGeometry width="50" height="50" relative="1" as="geometry">
            <mxPoint x="-413" y="263.35" as="sourcePoint" />
            <mxPoint x="-323" y="263.35" as="targetPoint" />
          </mxGeometry>
        </mxCell>
        <mxCell id="AVK9l2AzXD93aiFDaeZY-30" value="" style="ellipse;whiteSpace=wrap;html=1;aspect=fixed;shadow=1;" vertex="1" parent="1">
          <mxGeometry x="-330" y="253.75" width="20" height="20" as="geometry" />
        </mxCell>
        <mxCell id="AVK9l2AzXD93aiFDaeZY-32" value="" style="endArrow=none;html=1;rounded=0;exitX=1;exitY=0.5;exitDx=0;exitDy=0;shadow=1;" edge="1" parent="1" target="AVK9l2AzXD93aiFDaeZY-6">
          <mxGeometry width="50" height="50" relative="1" as="geometry">
            <mxPoint x="-310" y="263.35" as="sourcePoint" />
            <mxPoint x="-220" y="263.35" as="targetPoint" />
          </mxGeometry>
        </mxCell>
        <mxCell id="AVK9l2AzXD93aiFDaeZY-33" value="&lt;p style=&quot;margin: 6px 0px 0px; text-align: center;&quot;&gt;Integração com Terceiros (Fornecedores)&lt;br&gt;&lt;/p&gt;&lt;hr style=&quot;border-style: solid;&quot; size=&quot;1&quot;&gt;&lt;p style=&quot;margin: 0px 0px 0px 8px;&quot;&gt;&lt;br&gt;&lt;/p&gt;" style="align=left;overflow=fill;html=1;dropTarget=0;whiteSpace=wrap;shadow=1;" vertex="1" parent="1">
          <mxGeometry x="-629" y="360" width="480" height="190" as="geometry" />
        </mxCell>
        <mxCell id="AVK9l2AzXD93aiFDaeZY-34" value="" style="shape=component;jettyWidth=8;jettyHeight=4;shadow=1;" vertex="1" parent="AVK9l2AzXD93aiFDaeZY-33">
          <mxGeometry x="1" width="20" height="20" relative="1" as="geometry">
            <mxPoint x="-24" y="4" as="offset" />
          </mxGeometry>
        </mxCell>
        <mxCell id="AVK9l2AzXD93aiFDaeZY-35" value="&lt;span style=&quot;font-size: 18px;&quot;&gt;- Serviço de Fornecedores&lt;/span&gt;" style="html=1;dropTarget=0;whiteSpace=wrap;shadow=1;" vertex="1" parent="1">
          <mxGeometry x="-600" y="410" width="180" height="90" as="geometry" />
        </mxCell>
        <mxCell id="AVK9l2AzXD93aiFDaeZY-36" value="" style="shape=module;jettyWidth=8;jettyHeight=4;shadow=1;" vertex="1" parent="AVK9l2AzXD93aiFDaeZY-35">
          <mxGeometry x="1" width="20" height="20" relative="1" as="geometry">
            <mxPoint x="-27" y="7" as="offset" />
          </mxGeometry>
        </mxCell>
        <mxCell id="AVK9l2AzXD93aiFDaeZY-37" value="" style="rounded=0;whiteSpace=wrap;html=1;shadow=1;" vertex="1" parent="1">
          <mxGeometry x="-160" y="455" width="20" height="20" as="geometry" />
        </mxCell>
        <mxCell id="AVK9l2AzXD93aiFDaeZY-38" value="" style="rounded=0;whiteSpace=wrap;html=1;shadow=1;" vertex="1" parent="1">
          <mxGeometry x="-433" y="455" width="20" height="20" as="geometry" />
        </mxCell>
        <mxCell id="AVK9l2AzXD93aiFDaeZY-39" value="" style="endArrow=none;html=1;rounded=0;entryX=0;entryY=0.5;entryDx=0;entryDy=0;exitX=1;exitY=0.5;exitDx=0;exitDy=0;shadow=1;" edge="1" parent="1">
          <mxGeometry width="50" height="50" relative="1" as="geometry">
            <mxPoint x="-413" y="464.6" as="sourcePoint" />
            <mxPoint x="-323" y="464.6" as="targetPoint" />
          </mxGeometry>
        </mxCell>
        <mxCell id="AVK9l2AzXD93aiFDaeZY-40" value="" style="ellipse;whiteSpace=wrap;html=1;aspect=fixed;shadow=1;" vertex="1" parent="1">
          <mxGeometry x="-330" y="455" width="20" height="20" as="geometry" />
        </mxCell>
        <mxCell id="AVK9l2AzXD93aiFDaeZY-41" value="" style="endArrow=none;html=1;rounded=0;exitX=1;exitY=0.5;exitDx=0;exitDy=0;shadow=1;" edge="1" parent="1" target="AVK9l2AzXD93aiFDaeZY-37">
          <mxGeometry width="50" height="50" relative="1" as="geometry">
            <mxPoint x="-310" y="464.6" as="sourcePoint" />
            <mxPoint x="-220" y="464.6" as="targetPoint" />
          </mxGeometry>
        </mxCell>
        <mxCell id="AVK9l2AzXD93aiFDaeZY-42" value="" style="endArrow=none;html=1;rounded=0;shadow=1;" edge="1" parent="1">
          <mxGeometry width="50" height="50" relative="1" as="geometry">
            <mxPoint x="-140" y="263.35" as="sourcePoint" />
            <mxPoint x="-30" y="263.35" as="targetPoint" />
          </mxGeometry>
        </mxCell>
        <mxCell id="AVK9l2AzXD93aiFDaeZY-43" value="" style="ellipse;whiteSpace=wrap;html=1;aspect=fixed;shadow=1;" vertex="1" parent="1">
          <mxGeometry x="-40" y="252.75" width="21" height="21" as="geometry" />
        </mxCell>
        <mxCell id="AVK9l2AzXD93aiFDaeZY-44" value="" style="endArrow=none;html=1;rounded=0;shadow=1;" edge="1" parent="1">
          <mxGeometry width="50" height="50" relative="1" as="geometry">
            <mxPoint x="-140" y="465.1" as="sourcePoint" />
            <mxPoint x="-30" y="465.1" as="targetPoint" />
          </mxGeometry>
        </mxCell>
        <mxCell id="AVK9l2AzXD93aiFDaeZY-45" value="" style="ellipse;whiteSpace=wrap;html=1;aspect=fixed;shadow=1;" vertex="1" parent="1">
          <mxGeometry x="-40" y="454.5" width="21" height="21" as="geometry" />
        </mxCell>
        <mxCell id="AVK9l2AzXD93aiFDaeZY-46" value="&lt;font style=&quot;font-size: 18px;&quot;&gt;&lt;font&gt;Interface do app:&lt;/font&gt;&lt;br&gt;&lt;/font&gt;&lt;div&gt;&lt;font size=&quot;3&quot;&gt;&lt;br&gt;&lt;/font&gt;&lt;/div&gt;&lt;div&gt;&lt;font size=&quot;3&quot;&gt;- Tela para exibição dos relatórios e BI&lt;/font&gt;&lt;/div&gt;&lt;div&gt;&lt;br&gt;&lt;/div&gt;&lt;div&gt;&lt;font size=&quot;3&quot;&gt;&lt;font&gt;- Tela de edição de produtos&lt;/font&gt;&lt;br&gt;&lt;/font&gt;&lt;/div&gt;&lt;div&gt;&lt;font size=&quot;3&quot;&gt;&lt;br&gt;&lt;/font&gt;&lt;/div&gt;&lt;div&gt;&lt;font&gt;&lt;font size=&quot;3&quot;&gt;- Tela de pagamento&amp;nbsp;&lt;/font&gt;&lt;br&gt;&lt;/font&gt;&lt;/div&gt;&lt;div&gt;&lt;br&gt;&lt;/div&gt;" style="html=1;dropTarget=0;whiteSpace=wrap;shadow=1;" vertex="1" parent="1">
          <mxGeometry x="745" y="100" width="240" height="206" as="geometry" />
        </mxCell>
        <mxCell id="AVK9l2AzXD93aiFDaeZY-47" value="" style="shape=module;jettyWidth=8;jettyHeight=4;shadow=1;" vertex="1" parent="AVK9l2AzXD93aiFDaeZY-46">
          <mxGeometry x="1" width="20" height="20" relative="1" as="geometry">
            <mxPoint x="-27" y="7" as="offset" />
          </mxGeometry>
        </mxCell>
        <mxCell id="AVK9l2AzXD93aiFDaeZY-51" value="" style="rounded=0;whiteSpace=wrap;html=1;shadow=1;" vertex="1" parent="1">
          <mxGeometry x="730" y="170" width="20" height="20" as="geometry" />
        </mxCell>
        <mxCell id="AVK9l2AzXD93aiFDaeZY-73" value="" style="endArrow=none;html=1;rounded=0;endFill=0;shadow=1;" edge="1" parent="1" source="AVK9l2AzXD93aiFDaeZY-77" target="AVK9l2AzXD93aiFDaeZY-51">
          <mxGeometry width="50" height="50" relative="1" as="geometry">
            <mxPoint x="240" y="180" as="sourcePoint" />
            <mxPoint x="414" y="179.63" as="targetPoint" />
            <Array as="points">
              <mxPoint x="284" y="179.63" />
            </Array>
          </mxGeometry>
        </mxCell>
        <mxCell id="AVK9l2AzXD93aiFDaeZY-75" value="" style="endArrow=none;html=1;rounded=0;endFill=0;shadow=1;entryX=0;entryY=0.5;entryDx=0;entryDy=0;" edge="1" parent="1" target="AVK9l2AzXD93aiFDaeZY-84">
          <mxGeometry width="50" height="50" relative="1" as="geometry">
            <mxPoint x="195" y="246" as="sourcePoint" />
            <mxPoint x="414" y="246" as="targetPoint" />
            <Array as="points">
              <mxPoint x="284" y="245.63" />
            </Array>
          </mxGeometry>
        </mxCell>
        <mxCell id="AVK9l2AzXD93aiFDaeZY-77" value="" style="rounded=0;whiteSpace=wrap;html=1;" vertex="1" parent="1">
          <mxGeometry x="180" y="170" width="20" height="20" as="geometry" />
        </mxCell>
        <mxCell id="AVK9l2AzXD93aiFDaeZY-78" value="" style="rounded=0;whiteSpace=wrap;html=1;" vertex="1" parent="1">
          <mxGeometry x="180" y="232.75" width="20" height="20" as="geometry" />
        </mxCell>
        <mxCell id="AVK9l2AzXD93aiFDaeZY-79" value="" style="endArrow=none;html=1;rounded=0;endFill=0;entryX=0;entryY=0.5;entryDx=0;entryDy=0;shadow=1;exitX=1;exitY=0;exitDx=0;exitDy=0;" edge="1" parent="1" source="AVK9l2AzXD93aiFDaeZY-43" target="AVK9l2AzXD93aiFDaeZY-77">
          <mxGeometry width="50" height="50" relative="1" as="geometry">
            <mxPoint x="-329.99999999998863" y="47.620000000000005" as="sourcePoint" />
            <mxPoint x="113" y="40" as="targetPoint" />
            <Array as="points" />
          </mxGeometry>
        </mxCell>
        <mxCell id="AVK9l2AzXD93aiFDaeZY-80" value="" style="endArrow=none;html=1;rounded=0;endFill=0;shadow=1;exitX=1;exitY=0;exitDx=0;exitDy=0;entryX=0;entryY=0.75;entryDx=0;entryDy=0;" edge="1" parent="1" source="AVK9l2AzXD93aiFDaeZY-45" target="AVK9l2AzXD93aiFDaeZY-78">
          <mxGeometry width="50" height="50" relative="1" as="geometry">
            <mxPoint x="-12" y="266" as="sourcePoint" />
            <mxPoint x="190" y="250" as="targetPoint" />
            <Array as="points" />
          </mxGeometry>
        </mxCell>
        <mxCell id="AVK9l2AzXD93aiFDaeZY-84" value="" style="rounded=0;whiteSpace=wrap;html=1;shadow=1;" vertex="1" parent="1">
          <mxGeometry x="730" y="232.75" width="20" height="20" as="geometry" />
        </mxCell>
        <mxCell id="AVK9l2AzXD93aiFDaeZY-86" value="" style="endArrow=none;dashed=1;html=1;rounded=0;exitX=0.342;exitY=0.006;exitDx=0;exitDy=0;exitPerimeter=0;endFill=0;startArrow=open;startFill=0;entryX=0.5;entryY=1;entryDx=0;entryDy=0;" edge="1" parent="1" source="laINSOJrXMKJfUPYL4_i-11" target="AVK9l2AzXD93aiFDaeZY-46">
          <mxGeometry width="50" height="50" relative="1" as="geometry">
            <mxPoint x="701.8800000000001" y="408.30000000000007" as="sourcePoint" />
            <mxPoint x="851" y="317" as="targetPoint" />
            <Array as="points" />
          </mxGeometry>
        </mxCell>
        <mxCell id="AVK9l2AzXD93aiFDaeZY-87" value="" style="endArrow=none;dashed=1;html=1;rounded=0;exitX=0.569;exitY=0.001;exitDx=0;exitDy=0;exitPerimeter=0;endFill=0;startArrow=open;startFill=0;entryX=0.25;entryY=1;entryDx=0;entryDy=0;" edge="1" parent="1" source="laINSOJrXMKJfUPYL4_i-92" target="AVK9l2AzXD93aiFDaeZY-46">
          <mxGeometry width="50" height="50" relative="1" as="geometry">
            <mxPoint x="701.8800000000001" y="408.30000000000007" as="sourcePoint" />
            <mxPoint x="851" y="317" as="targetPoint" />
            <Array as="points" />
          </mxGeometry>
        </mxCell>
      </root>
    </mxGraphModel>
  </diagram>
</mxfile>
